<svg id="Calque_1" data-name="Calque 1" xmlns="http://www.w3.org/2000/svg" viewBox="0 0 404 326"><defs><style>.cls-1{font-size:46.26px;font-family:Raleway-Medium, Raleway;font-weight:500;letter-spacing:0.08em;}.cls-1,.cls-5{fill:#fff;}.cls-2{letter-spacing:0.07em;}.cls-3{letter-spacing:0.01em;}.cls-4{fill:none;}</style></defs><title>lologo</title><text class="cls-1" transform="translate(9.22 266.63)">IN<tspan class="cls-2" x="55.14" y="0">F</tspan><tspan x="85.26" y="0">ORM</tspan><tspan class="cls-3" x="201.92" y="0">A</tspan><tspan x="233.89" y="0">TIQUE</tspan></text><path class="cls-4" d="M187.71,281.24l-5-5H152.42L187.05,311l34.68-34.74h-29Z"/><path class="cls-4" d="M188.53,14.83,40,163.52l60.49,60.67h30.05L68.91,162.61,187.45,44.2,306.16,162.83l-61.38,61.36h28.9l62-62.11Z"/><path class="cls-4" d="M190.06,276.23h-2.22l-.25.25-.25-.25h-2c.78.79,1.56,1.57,2.35,2.35Z"/><path class="cls-5" d="M187.71,278.58c-.79-.78-1.57-1.56-2.35-2.35H182.7l5,5,5-5h-2.66Z"/><path class="cls-5" d="M72.07,162.76,187.56,47.22l115.89,116-61.17,61h2.5l61.38-61.36L187.45,44.2,68.91,162.61l61.67,61.58h2.82Z"/><path class="cls-5" d="M183.64,197.91c0-4.68.05-9.37,0-14.06a5.16,5.16,0,0,0-.91-2.58q-18-27.63-36-55.21c-.42-.64-1.17-1.48-1.8-1.51-3.43-.15-6.87-.07-10.18-.07v73.73h9.41V141.54l.68-.19,7.66,11.72Z"/><path class="cls-5" d="M242,123.87a63.52,63.52,0,0,1-7.87-.77c-3.14-.47-5.16.92-7.18,3.2-8.95,10.11-17.86,20.27-27.21,30-3.45,3.59-3.78,7.23-3.13,12l7.42-6.44c.63.79,1.12,1.37,1.58,2q12,16.11,24.07,32.23c.54.73,1.32,1.75,2,1.8,2.92.21,6.79.08,10.27.08-10.55-14.47-19.86-26.11-30-40.07C221.83,147.17,231.71,135,242,123.87Z"/><path class="cls-5" d="M185.81,198h8.83V125.43h-8.83Z"/><polygon class="cls-5" points="103.52 224.5 44.9 164.09 188.58 16.05 331.1 162.91 271.32 224.5 276.22 224.5 336 162.91 188.58 11 40 164.09 98.62 224.5 103.52 224.5"/><polygon class="cls-5" points="220.86 276.5 187.42 310.95 153.99 276.5 149.09 276.5 187.42 316 225.76 276.5 220.86 276.5"/></svg>