<svg width="40px" id="Calque_1" data-name="Calque 1" xmlns="http://www.w3.org/2000/svg" viewBox="0 0 121 75"><defs><style>.cls-1{fill:#2f3c4d;}</style></defs><title>loPlan de travail 4</title><path class="cls-1" d="M57.64,74.91c0-4.68,0-9.37,0-14.06a5.16,5.16,0,0,0-.91-2.58q-18-27.63-36-55.21c-.42-.64-1.17-1.48-1.8-1.51C15.45,1.4,12,1.48,8.7,1.48V75.21h9.41V18.54l.68-.19,7.66,11.72Z"/><path class="cls-1" d="M116,.87A63.52,63.52,0,0,1,108.13.1C105-.37,103,1,101,3.3c-9,10.11-17.86,20.27-27.21,30-3.45,3.59-3.78,7.23-3.13,12L78,38.86c.63.79,1.12,1.37,1.58,2q12,16.11,24.07,32.23c.54.73,1.32,1.75,2,1.8,2.92.21,6.79.08,10.27.08C105.45,60.49,96.14,48.85,86,34.89,95.83,24.17,105.71,12,116,.87Z"/><path class="cls-1" d="M59.81,75h8.83V2.43H59.81Z"/></svg>
