<svg width="40px" id="Calque_1" data-name="Calque 1" xmlns="http://www.w3.org/2000/svg" viewBox="0 0 115 80"><defs><style>.cls-1{fill:#2f3c4d;}</style></defs><title>loPlan de travail 2</title><path class="cls-1" d="M86,42.49a10.35,10.35,0,0,0-5-4,12.8,12.8,0,0,0,2.12-1.41,13.91,13.91,0,0,0,2.07-2.2L113.06,2.79h-9.53a7.24,7.24,0,0,0-3,.55,6.84,6.84,0,0,0-2.36,2L74.25,33.12A5.62,5.62,0,0,1,72,34.82a8.77,8.77,0,0,1-3.22.5H67.37a1,1,0,0,0-.87,1v6.67a1,1,0,0,0,1,1H69.7a14.15,14.15,0,0,1,2.09.13,5.71,5.71,0,0,1,1.57.42,4.07,4.07,0,0,1,1.21.76,8,8,0,0,1,1.05,1.15L100.39,75.7a5,5,0,0,0,.81,1,4.42,4.42,0,0,0,1,.71,4.83,4.83,0,0,0,1.3.44,8.69,8.69,0,0,0,1.81.16H115Z"/><path class="cls-1" d="M12,21.07,53.05,74.16V60.4a8.12,8.12,0,0,0-1.7-5L12.06,4.68a4.94,4.94,0,0,0-1.63-1.55,5.58,5.58,0,0,0-2.2-.34H2.47V78H9.24a3,3,0,0,0,3-3V26.41c0-.8,0-1.65-.07-2.56S12.07,22,12,21.07Z"/><path class="cls-1" d="M65.23,5.08V3.79h0a1,1,0,0,0-1-1h-7.8a1,1,0,0,0-1,1h0V5.08h0V51h0V75.81l.16.2a6.55,6.55,0,0,0,1.75,1.52,4.57,4.57,0,0,0,2.18.47h4.65a1,1,0,0,0,1-1v-.48h0V76.2h0V43.91h0V35.32h0V5.08Z"/></svg>
