<svg id="Calque_1" data-name="Calque 1" xmlns="http://www.w3.org/2000/svg" viewBox="0 0 568.06 506.66"><title>loPlan de travail 16</title><path d="M512.92,105.32H53.44a26.33,26.33,0,0,0-26.26,26.25V420.39a26.34,26.34,0,0,0,26.26,26.26H512.92a26.33,26.33,0,0,0,26.26-26.26V131.57A26.33,26.33,0,0,0,512.92,105.32ZM503.07,125,298.28,278.61c-3.68,2.8-9.33,4.55-15.1,4.53s-11.42-1.73-15.1-4.53L63.29,125ZM393.68,288.74,505.27,426.59c.11.14.25.24.37.37H60.72c.12-.13.26-.23.37-.37L172.68,288.74a9.85,9.85,0,0,0-15.31-12.39L46.87,412.85V137.32l209.4,157a47,47,0,0,0,53.82,0l209.39-157V412.85L409,276.35a9.85,9.85,0,0,0-15.31,12.39Z"/></svg>