<svg id="Calque_1" data-name="Calque 1" xmlns="http://www.w3.org/2000/svg" viewBox="0 0 43 43"><defs><style>.cls-1{fill:#353e4c;stroke:#fff;stroke-miterlimit:10;stroke-width:2px;}.cls-2{fill:#fff;}</style></defs><title>tPlan de travail 6 copie</title><rect class="cls-1" x="8" y="7.21" width="28" height="28" transform="translate(-8.55 21.77) rotate(-45)"/><path class="cls-2" d="M27.58,16a1,1,0,0,0-1.73-.72l-.23.23a.33.33,0,0,0-.42,0L17,23.08a.3.3,0,0,0-.09.13l-.81,2.16a.34.34,0,0,0,.07.36l.08.08L16.1,26a.34.34,0,0,0,0,.48.34.34,0,0,0,.48,0l.19-.19.08.08a.37.37,0,0,0,.24.1l.12,0,2.16-.82a.3.3,0,0,0,.13-.09L27,17.38a.36.36,0,0,0,0-.42l.22-.22A1,1,0,0,0,27.58,16Zm-.77-.24a.34.34,0,0,1,.09.24.36.36,0,0,1-.09.24l-.23.22L26.1,16l.23-.22A.34.34,0,0,1,26.81,15.78Zm-9.63,10-.33-.33.6-1.6,1.33,1.33Zm5.31-4.43-1.21-1.21,4.14-3.81.89.88Z"/></svg>
