<svg width="40px" id="Calque_1" data-name="Calque 1" xmlns="http://www.w3.org/2000/svg" viewBox="0 0 48 70"><defs><style>.cls-1{fill:#2f3c4d;}</style></defs><title>tPlan de travail 4</title><path class="cls-1" d="M25.14,49.39c-6.75,0-12.25-4.86-12.25-10.83v-14c0-6,5.5-10.83,12.25-10.83S37.39,18.6,37.39,24.57v14C37.39,44.53,31.9,49.39,25.14,49.39Zm0-33.88c-5.65,0-10.25,4.06-10.25,9.06v14c0,5,4.6,9.06,10.25,9.06s10.25-4.07,10.25-9.06v-14C35.39,19.57,30.8,15.51,25.14,15.51Z"/><path class="cls-1" d="M25.38,25.17a1.42,1.42,0,0,1-1.5-1.33V20a1.51,1.51,0,0,1,3,0v3.81A1.42,1.42,0,0,1,25.38,25.17Z"/><path class="cls-1" d="M25.05,61h0a1.05,1.05,0,0,1-.71-.26l-6.29-5.56a.81.81,0,0,1,0-1.25,1.08,1.08,0,0,1,1.41,0l5.59,4.94,5.58-4.94a1.09,1.09,0,0,1,1.42,0,.81.81,0,0,1,0,1.25l-6.3,5.56A1,1,0,0,1,25.05,61Z"/></svg>
