<svg id="Calque_1" data-name="Calque 1" xmlns="http://www.w3.org/2000/svg" viewBox="0 0 43 43"><defs><style>.cls-1{fill:#353e4c;stroke:#fff;stroke-miterlimit:10;stroke-width:2px;}.cls-2{fill:#fff;}</style></defs><title>tPlan de travail 6</title><rect class="cls-1" x="8" y="7.15" width="28" height="28" transform="translate(-8.51 21.75) rotate(-45)"/><path class="cls-2" d="M29.27,21.67H28.09v-3c-1.14.11-1.24.22-1.24,1.26a10.29,10.29,0,0,0,0,1.36,5.12,5.12,0,0,0,.38,1.39,1.64,1.64,0,0,1-.47,2.1,3.81,3.81,0,0,0-.81.94c-1.19,2.07-3.16,3-5.11,2.43A5,5,0,0,1,18,25.69a3.57,3.57,0,0,0-.77-.87,1.46,1.46,0,0,1-.5-2A3.89,3.89,0,0,0,17.16,21c.24-1.45-.22-2.36-1.72-2.64a3.51,3.51,0,0,1-.63-.28l7-3h.31l7.12,3ZM22,27.15a3.71,3.71,0,0,0,3.09-2.31,2.52,2.52,0,0,1,.77-.79c.37-.27.58-.63.21-.92A1.2,1.2,0,0,1,25.64,22c0-.66-.29-.9-.92-.89-1.82,0-3.64,0-5.45,0-.7,0-.92.31-.94,1a2.11,2.11,0,0,1-.39,1c-.26.4-.28.81.15.93s.68.58.9,1A3.59,3.59,0,0,0,22,27.15Z"/></svg>
