<svg id="Calque_1" data-name="Calque 1" xmlns="http://www.w3.org/2000/svg" viewBox="0 0 43 43"><defs><style>.cls-1{fill:#353e4c;stroke:#fff;stroke-miterlimit:10;stroke-width:2px;}.cls-2{fill:#fff;}</style></defs><title>tPlan de travail 6 copie 2</title><rect class="cls-1" x="8" y="8.54" width="28" height="28" transform="translate(-9.49 22.16) rotate(-45)"/><path class="cls-2" d="M26.91,26.13c.25-.07.22-.3.21-.5-.05-2.28-.12-4.57-.14-6.85,0-.66-.17-1-.84-1-2.39.1-4.77.16-7.16.23a1.41,1.41,0,0,0-.22-.06c-1.8-.1-1.8-.1-1.76,1.9,0,1.75.07,3.51.09,5.26,0,.27.07.67-.31.67s-.36-.37-.37-.67c0-2.26-.1-4.51-.12-6.76a1,1,0,0,1,1.1-1.15l9-.18c.88,0,1.21.51,1.23,1.41,0,2.25.07,4.51.14,6.76,0,.34-.22.94.43.91s.75.4.74,1-.22,1.15-.85,1.29a3.07,3.07,0,0,1-.68,0l-10.51.21a2.66,2.66,0,0,1-.8,0c-.68-.19-.8-.78-.82-1.46s.43-.75.91-.75c1.22,0,2.44-.05,3.66-.07.37,0,.8-.12.91.48-.12.69-.65.59-1.07.62-.83.06-1.67.08-2.5.07,3.28,0,6.55-.11,9.82-.18-.82,0-1.64.06-2.46,0-.42,0-.95.1-1.1-.58.09-.59.5-.5.87-.52Z"/></svg>
