<svg width="60px" id="Calque_1" data-name="Calque 1" xmlns="http://www.w3.org/2000/svg" viewBox="0 0 113 109"><defs><style>.cls-1{fill:#2F3C4D;stroke:#fff;stroke-miterlimit:10;}.cls-2{fill:#fff;}</style></defs><title>Linkedin</title><rect class="cls-1" x="18.64" y="18.38" width="71.54" height="71.54" transform="translate(54.23 -22.61) rotate(45)"/><path class="cls-2" d="M69,68.76h0V58.05c0-5.24-1.13-9.28-7.26-9.28A6.38,6.38,0,0,0,56,51.92H56V49.26H50.14v19.5h6V59.1c0-2.54.48-5,3.63-5S63,57,63,59.27v9.49Z"/><path class="cls-2" d="M40.29,49.26h6.05v19.5H40.29Z"/><path class="cls-2" d="M43.31,39.55a3.53,3.53,0,1,0,3.51,3.51A3.51,3.51,0,0,0,43.31,39.55Z"/></svg>
