<svg id="Calque_1" data-name="Calque 1" xmlns="http://www.w3.org/2000/svg" viewBox="0 0 47 73"><defs><style>.cls-1{fill:#fff;}</style></defs><title>loPlan de travail 3</title><path class="cls-1" d="M24.28,62l-.88-.89c-.89-.91-21.77-22.34-21.77-34.53a22.66,22.66,0,1,1,45.31,0c0,12.19-20.89,33.62-21.78,34.53Zm0-55.61A20.21,20.21,0,0,0,4.1,26.57c0,9.86,16.19,27.63,20.18,31.87,4-4.24,20.19-22,20.19-31.87A20.22,20.22,0,0,0,24.28,6.38Zm0,29.84A10.42,10.42,0,1,1,34.7,25.8,10.44,10.44,0,0,1,24.28,36.22Zm0-18.36a7.95,7.95,0,1,0,7.95,7.94A7.95,7.95,0,0,0,24.28,17.86Z"/><path class="cls-1" d="M24.28,73C15.7,73,6.57,70.26,6.57,65.17c0-1.5.84-3.66,4.83-5.48l1,2.25C10.3,62.9,9,64.11,9,65.17c0,2.53,6.52,5.36,15.24,5.36s15.24-2.83,15.24-5.36c0-1.53-2.56-3.25-6.38-4.28l.65-2.39C39,59.91,42,62.34,42,65.17,42,70.26,32.87,73,24.28,73Z"/></svg>