<svg id="Calque_1" data-name="Calque 1" xmlns="http://www.w3.org/2000/svg" viewBox="0 0 64 42"><defs><style>.cls-1{fill:#edc88c;}</style></defs><title>loPlan de travail 4</title><path class="cls-1" d="M9,1C-4,14.66,1,41,17.79,41c5.55,0,13.38-5.51,13.36-13,0-7.23-7.32-13-13.36-13a13.59,13.59,0,0,0-3.08.36,13.56,13.56,0,0,1,.08-1.84,20.39,20.39,0,0,1,.72-3.8,50,50,0,0,1,2.28-5.52L9,1"/><path class="cls-1" d="M40,1c-13,13.66-8,40,8.79,40,5.55,0,13.38-5.51,13.36-13,0-7.23-7.32-13-13.36-13a13.59,13.59,0,0,0-3.08.36,13.56,13.56,0,0,1,.08-1.84,20.39,20.39,0,0,1,.72-3.8,50,50,0,0,1,2.28-5.52L40,1"/></svg>