<svg width="60px" id="Calque_1" data-name="Calque 1" xmlns="http://www.w3.org/2000/svg" viewBox="0 0 113 109"><defs><style>.cls-1{fill:#2f3c4d;stroke:#fff;stroke-miterlimit:10;}.cls-2{fill:#fff;}</style></defs><title>twPlan de travail 3</title><rect class="cls-1" x="20.14" y="18.25" width="73.65" height="73.65" transform="translate(55.63 -24.15) rotate(45)"/><path class="cls-2" d="M74.33,47.21a14.67,14.67,0,0,1-4.1,1.13,7.11,7.11,0,0,0,3.13-3.94,14.47,14.47,0,0,1-4.52,1.73A7.11,7.11,0,0,0,56.53,51a7.21,7.21,0,0,0,.17,1.63A20.16,20.16,0,0,1,42,45.17a7.1,7.1,0,0,0,2.19,9.51A7,7,0,0,1,41,53.81v.08a7.16,7.16,0,0,0,5.7,7,7,7,0,0,1-1.86.23A6,6,0,0,1,43.49,61a7.19,7.19,0,0,0,6.65,5,14.34,14.34,0,0,1-8.83,3,13.62,13.62,0,0,1-1.7-.1,20.06,20.06,0,0,0,10.92,3.19c13.1,0,20.26-10.85,20.26-20.25,0-.32,0-.62,0-.92A14.28,14.28,0,0,0,74.33,47.21Z"/></svg>
